<?xml version="1.0" encoding="UTF-8"?>
<svg id="uuid-75ce7644-ba99-40ac-8fc3-44577cb7ca2c" data-name="Dimensions" xmlns="http://www.w3.org/2000/svg" xmlns:xlink="http://www.w3.org/1999/xlink" viewBox="0 0 20 20">
  <defs>
    <style>
      .uuid-a4612a8c-d559-4268-883d-7e117fbaa33c {
        fill: none;
      }

      .uuid-0d43b0f0-33f8-4c3d-a87e-a2306d1048c4 {
        fill: #fff;
      }

      .uuid-9e815ca9-75d7-409a-a1ad-4a6c8524d0f3 {
        clip-path: url(#uuid-c546bafd-93c8-4a20-9df5-94fe182e9976);
      }
    </style>
    <clipPath id="uuid-c546bafd-93c8-4a20-9df5-94fe182e9976">
      <rect class="uuid-a4612a8c-d559-4268-883d-7e117fbaa33c" width="20" height="20"/>
    </clipPath>
  </defs>
  <g id="uuid-eb700994-2f43-4ec0-b34e-f9d606fee32c" data-name="Grupo 1039">
    <path id="uuid-a4a7904e-fea3-4401-bcd9-97a0315e173b" data-name="Trazado 755" class="uuid-0d43b0f0-33f8-4c3d-a87e-a2306d1048c4" d="M6.887,5.803c.303.015.588.144.8.361.707.713,1.422,1.417,2.126,2.133.139.142.225.151.369,0,.709-.722,1.427-1.435,2.144-2.149.404-.431,1.08-.452,1.511-.048.188.176.306.414.332.67.038.338-.09.673-.344.9-.7.7-1.4,1.413-2.116,2.108-.172.168-.158.262.006.422.712.7,1.412,1.4,2.115,2.109.432.402.457,1.078.055,1.511-.176.189-.414.308-.67.335-.337.04-.673-.087-.9-.34-.7-.7-1.413-1.4-2.108-2.116-.163-.167-.258-.17-.422,0-.7.718-1.414,1.425-2.127,2.131-.407.426-1.081.441-1.507.034-.176-.169-.29-.392-.321-.634-.05-.343.074-.689.332-.921.7-.7,1.4-1.414,2.116-2.107.183-.178.164-.273-.008-.44-.719-.701-1.429-1.41-2.131-2.128-.326-.303-.419-.781-.231-1.184.171-.389.553-.642.977-.648"/>
    <g id="uuid-5a11a26a-4e57-4dc2-867a-746d1d140c7b" data-name="Grupo 1037">
      <g class="uuid-9e815ca9-75d7-409a-a1ad-4a6c8524d0f3">
        <g id="uuid-4b316ff4-6740-4c44-b35c-470968c8203c" data-name="Grupo 1036">
          <path id="uuid-a6955865-67c1-40d0-978f-6285e7521531" data-name="Trazado 758" class="uuid-0d43b0f0-33f8-4c3d-a87e-a2306d1048c4" d="M10.005,19.596C4.592,19.696.119,15.397.005,9.985.119,4.573,4.592.274,10.005.374c5.413-.1,9.886,4.199,10,9.611-.114,5.412-4.587,9.711-10,9.611M10.005,2.074c-4.455-.08-8.136,3.459-8.23,7.914.096,4.454,3.776,7.991,8.23,7.911,4.455.08,8.136-3.459,8.23-7.914-.096-4.454-3.776-7.991-8.23-7.911"/>
        </g>
      </g>
    </g>
  </g>
</svg>