<?xml version="1.0" encoding="UTF-8"?>
<svg id="Dimensions" xmlns="http://www.w3.org/2000/svg" viewBox="0 0 112.376 18.695">
  <defs>
    <style>
      .cls-1 {
        fill: #fff;
        stroke: #fff;
      }
    </style>
  </defs>
  <g id="Componente_6_141" data-name="Componente 6 141">
    <path id="Trazado_872" data-name="Trazado 872" class="cls-1" d="M4.212,5.627c.634,0,1.268-.014,1.9.006.285.045.557-.137.626-.417.453-1.225.919-2.446,1.4-3.661.287-.821,1.186-1.253,2.007-.966.058.02.115.044.17.071.395.187.696.528.832.944.456,1.2.93,2.389,1.373,3.591.071.293.353.483.651.438,1.228-.018,2.457-.005,3.686-.008.284-.009.569.027.842.106.519.138.917.555,1.029,1.08.153.58-.063,1.194-.544,1.551-1,.808-2.021,1.6-3.033,2.4q-.487.385-.291.964c.419,1.237.847,2.47,1.251,3.711.298.761-.077,1.62-.838,1.918-.07.028-.143.05-.217.066-.484.118-.994.019-1.4-.269-1.21-.771-2.43-1.526-3.636-2.3-.208-.177-.513-.179-.724-.006-1.203.8-2.416,1.589-3.638,2.367-.734.514-1.746.336-2.26-.398-.041-.059-.078-.12-.112-.184-.176-.408-.184-.869-.022-1.283.411-1.278.814-2.559,1.241-3.832.112-.232.024-.511-.2-.638-1.053-.811-2.091-1.639-3.137-2.458-.461-.31-.715-.847-.661-1.4.09-.846.843-1.463,1.691-1.386.672-.021,1.345,0,2.017,0h0"/>
  </g>
  <g id="Componente_6_142" data-name="Componente 6 142">
    <path id="Trazado_872-2" data-name="Trazado 872-2" class="cls-1" d="M27.487,5.627c.634,0,1.268-.014,1.9.006.285.045.557-.137.626-.417.453-1.225.919-2.446,1.4-3.661.287-.821,1.186-1.253,2.007-.966.058.02.115.044.17.071.395.187.696.528.832.944.456,1.2.93,2.389,1.373,3.591.071.293.353.483.651.438,1.228-.018,2.457-.005,3.686-.008.284-.009.569.027.842.106.519.138.917.555,1.029,1.08.153.58-.063,1.194-.544,1.551-1,.808-2.021,1.6-3.033,2.4q-.487.385-.291.964c.419,1.237.847,2.47,1.251,3.711.298.761-.077,1.62-.838,1.918-.07.028-.143.05-.217.066-.484.118-.994.019-1.4-.269-1.21-.771-2.43-1.526-3.636-2.3-.208-.177-.513-.179-.724-.006-1.203.8-2.416,1.589-3.638,2.367-.734.514-1.746.336-2.26-.398-.041-.059-.078-.12-.112-.184-.176-.408-.184-.869-.022-1.283.411-1.278.814-2.559,1.241-3.832.112-.232.024-.511-.2-.638-1.053-.811-2.091-1.639-3.137-2.458-.461-.31-.715-.847-.661-1.4.09-.846.843-1.463,1.691-1.386.672-.021,1.345,0,2.017,0h0"/>
  </g>
  <g id="Componente_6_143" data-name="Componente 6 143">
    <path id="Trazado_872-3" data-name="Trazado 872-3" class="cls-1" d="M50.761,5.627c.634,0,1.268-.014,1.9.006.285.045.557-.137.626-.417.453-1.225.919-2.446,1.4-3.661.287-.821,1.186-1.253,2.007-.966.058.02.115.044.17.071.395.187.696.528.832.944.456,1.2.93,2.389,1.373,3.591.071.293.353.483.651.438,1.228-.018,2.457-.005,3.686-.008.284-.009.569.027.842.106.519.138.917.555,1.029,1.08.153.58-.063,1.194-.544,1.551-1,.808-2.021,1.6-3.033,2.4q-.487.385-.291.964c.419,1.237.847,2.47,1.251,3.711.298.761-.077,1.62-.838,1.918-.07.028-.143.05-.217.066-.484.118-.994.019-1.4-.269-1.21-.771-2.43-1.526-3.636-2.3-.208-.177-.513-.179-.724-.006-1.203.8-2.416,1.589-3.638,2.367-.734.514-1.746.336-2.26-.398-.041-.059-.078-.12-.112-.184-.176-.408-.184-.869-.022-1.283.411-1.278.814-2.559,1.241-3.832.112-.232.024-.511-.2-.638-1.053-.811-2.091-1.639-3.137-2.458-.461-.31-.715-.847-.661-1.4.09-.846.843-1.463,1.691-1.386.672-.021,1.345,0,2.017,0h0"/>
  </g>
  <g id="Componente_6_145" data-name="Componente 6 145">
    <path id="Trazado_872-4" data-name="Trazado 872-4" class="cls-1" d="M97.31,5.835c.634,0,1.268-.015,1.9.006.292.044.568-.148.628-.438.453-1.275.919-2.545,1.4-3.81.257-.819,1.13-1.275,1.949-1.018.077.024.153.055.226.091.4.2.701.555.832.983.456,1.247.93,2.487,1.373,3.738.064.299.348.498.651.456,1.228-.019,2.457-.005,3.686-.008.285-.009.569.029.842.111.526.151.923.584,1.029,1.121.155.598-.059,1.231-.544,1.614-1,.841-2.021,1.668-3.033,2.5q-.487.4-.291,1c.419,1.287.847,2.571,1.251,3.862.311.797-.083,1.696-.88,2.007-.057.022-.115.041-.175.057-.485.122-.999.019-1.4-.28-1.21-.8-2.43-1.588-3.636-2.4-.206-.183-.515-.186-.724-.006-1.203.839-2.415,1.663-3.638,2.47-.71.516-1.705.359-2.221-.351-.058-.08-.109-.165-.151-.255-.176-.426-.184-.903-.022-1.335.411-1.33.814-2.663,1.241-3.988.112-.24.026-.526-.2-.664-1.053-.841-2.091-1.703-3.137-2.556-.466-.333-.718-.89-.661-1.46.073-.862.828-1.505,1.691-1.439.672-.022,1.345,0,2.017,0h0"/>
  </g>
  <g id="Componente_6_144" data-name="Componente 6 144">
    <path id="Trazado_872-5" data-name="Trazado 872-5" class="cls-1" d="M74.036,5.835c.634,0,1.268-.015,1.9.006.292.044.568-.148.628-.438.453-1.275.919-2.545,1.4-3.81.257-.819,1.13-1.275,1.949-1.018.077.024.153.055.226.091.4.2.701.555.832.983.456,1.247.93,2.487,1.373,3.738.064.299.348.498.651.456,1.228-.019,2.457-.005,3.686-.008.285-.009.569.029.842.111.526.151.923.584,1.029,1.121.155.598-.059,1.231-.544,1.614-1,.841-2.021,1.668-3.033,2.5q-.487.4-.291,1c.419,1.287.847,2.571,1.251,3.862.311.797-.083,1.696-.88,2.007-.057.022-.115.041-.175.057-.485.122-.999.019-1.4-.28-1.21-.8-2.43-1.588-3.636-2.4-.206-.183-.515-.186-.724-.006-1.203.839-2.415,1.663-3.638,2.47-.71.516-1.705.359-2.221-.351-.058-.08-.109-.165-.151-.255-.176-.426-.184-.903-.022-1.335.411-1.33.814-2.663,1.241-3.988.112-.24.026-.526-.2-.664-1.053-.841-2.091-1.703-3.137-2.556-.466-.333-.718-.89-.661-1.46.073-.862.828-1.505,1.691-1.439.672-.022,1.345,0,2.017,0h0"/>
  </g>
</svg>