<?xml version="1.0" encoding="UTF-8"?>
<svg xmlns="http://www.w3.org/2000/svg" version="1.1" viewBox="0 0 32 41.2">
  <defs>
    <style>
      .cls-1 {
        fill: #202f50;
      }

      .cls-2 {
        fill: #708fc7;
      }
    </style>
  </defs>
  <!-- Generator: Adobe Illustrator 28.7.1, SVG Export Plug-In . SVG Version: 1.2.0 Build 142)  -->
  <g>
    <g id="uuid-2736b5c9-8c45-41a0-ae24-d260d23c63f4">
      <path id="uuid-5a08d41d-e363-49fd-bb56-1f483e99df91" class="cls-2" d="M6,10.3c3.2-5.6,10.3-7.4,15.9-4.2,1.8,1,3.2,2.5,4.2,4.2h4.9C27.8,2,18.5-2.1,10.2,1.1,6,2.7,2.7,6.1,1,10.3h5Z"/>
      <path id="uuid-cea937f9-f299-409c-b321-cf9b4d7d841b" class="cls-1" d="M27.5,15.8c0,.3,0,.5,0,.8,0,6.6-11.5,18-11.5,18,0,0-11.5-11.4-11.5-18s0-.5,0-.8H0c0,.2,0,.5,0,.8,0,9.2,16,24.6,16,24.6,0,0,16-15.5,16-24.6s0-.5,0-.8h-4.5Z"/>
    </g>
  </g>
</svg>