<?xml version="1.0" encoding="UTF-8"?>
<svg id="Dimensions" xmlns="http://www.w3.org/2000/svg" xmlns:xlink="http://www.w3.org/1999/xlink" viewBox="0 0 75 75">
  <defs>
    <style>
      .cls-1 {
        fill: none;
      }

      .cls-2 {
        fill: #1f2f50;
      }

      .cls-3 {
        clip-path: url(#clippath);
      }
    </style>
    <clipPath id="clippath">
      <rect class="cls-1" width="75" height="75"/>
    </clipPath>
  </defs>
  <g id="Grupo_1071" data-name="Grupo 1071">
    <path id="Trazado_756" data-name="Trazado 756" class="cls-2" d="M32.837,49.587c-1.622-.03-3.174-.664-4.353-1.778-2.766-2.662-5.515-5.342-8.285-8-.394-.379-.465-.644-.041-1.065,1.155-1.146,2.293-2.313,3.39-3.515.477-.523.778-.422,1.227.022,2.475,2.439,4.987,4.84,7.454,7.286.465.461.716.425,1.161-.014,5.571-5.494,11.152-10.977,16.745-16.448.753-.739.759-.737,1.478-.009,1.076,1.089,2.136,2.194,3.228,3.266.407.4.481.679.027,1.123-5.883,5.766-11.756,11.541-17.62,17.326-1.186,1.144-2.765,1.79-4.412,1.807"/>
    <g id="Grupo_1038" data-name="Grupo 1038">
      <g class="cls-3">
        <g id="Grupo_1036" data-name="Grupo 1036">
          <path id="Trazado_758" data-name="Trazado 758" class="cls-2" d="M37.5,75C16.789,75,0,58.211,0,37.5S16.789,0,37.5,0s37.5,16.789,37.5,37.5c-.023,20.701-16.799,37.477-37.5,37.5M37.5,6.623c-17.053,0-30.877,13.824-30.877,30.877s13.824,30.877,30.877,30.877,30.877-13.824,30.877-30.877h0c-.019-17.045-13.832-30.858-30.877-30.877"/>
        </g>
      </g>
    </g>
  </g>
</svg>