<?xml version="1.0" encoding="UTF-8"?><svg id="uuid-7200c784-4877-4ea2-9337-2a97ad48e5ee" xmlns="http://www.w3.org/2000/svg" width="52.32" height="57" viewBox="0 0 52.32 57"><defs><style>.uuid-ee1339f4-59bf-42b9-bbfb-ddf4afee986f{fill:#202f50;}</style></defs><path id="uuid-0dfb0305-440d-4de1-859f-63244e2a50a4" class="uuid-ee1339f4-59bf-42b9-bbfb-ddf4afee986f" d="M30.5,0l7.05.68c2.71.52,5.71.54,7.81,2.54,3.93,3.74,1.42,11.97,2.2,16.96.33,2.14,3.55,5.63,4.76,7.48v29.33H0v-29.39c1.1-1.31,2.12-2.69,3.05-4.13.86-1.13,1.45-2.44,1.74-3.83.29-3.89-.36-8.28,0-12.14C5.48,0,16.14.7,21.55.12l.27-.12h8.68ZM32.06,5.01c-3.93-.29-7.87-.29-11.8,0l5.79,16.26,6.01-16.26ZM4.79,29.33v22.88h18.92v-23.44L15.23,5.59c-2.05.41-5.42,0-5.67,2.82-.34,3.92.46,8.61-.02,12.45-.35,2.81-3.09,6.26-4.76,8.49M47.53,52.22v-22.88c-1.66-2.24-4.4-5.67-4.76-8.49-.48-3.84.33-8.53-.02-12.45-.26-2.82-3.61-2.4-5.67-2.81l-8.48,23.2v23.44h18.93Z"/><path id="uuid-cb0b4e7a-6502-448c-992c-ff113547c055" class="uuid-ee1339f4-59bf-42b9-bbfb-ddf4afee986f" d="M38.63,33.63c.3.03.17-.01.22-.17,1.28-4.04,6.32-3.12,6.57.77.22,3.32-4.22,7.03-6.65,8.84-2.36-1.64-6.52-5.23-6.72-8.27-.29-4.44,5.6-5.56,6.57-1.17"/></svg>