<?xml version="1.0" encoding="UTF-8"?>
<svg id="uuid-740b9def-fbe0-42ee-b91d-ae52d6fac946" data-name="Dimensions" xmlns="http://www.w3.org/2000/svg" viewBox="0 0 29.804 29.818">
  <defs>
    <style>
      .uuid-7dda7e5c-070d-407d-8a13-7652e742828c {
        fill: #b8c5e7;
      }
    </style>
  </defs>
  <g id="uuid-f2b1e57a-05d6-4348-9ba6-f994b02f363e" data-name="Grupo 1035">
    <g id="uuid-f3ea759f-fc1d-46de-a1db-6589b2b2e105" data-name="Grupo 1034">
      <path class="uuid-7dda7e5c-070d-407d-8a13-7652e742828c" d="M29.765,9.271c-.292-1.855-1.922-3.207-3.817-3.167h-8.534v-2.213c.066-1.855-1.206-3.499-3.035-3.896l-.08-.04H3.074C2.014.166,1.074.803.503,1.717.265,2.128.093,2.578,0,3.042v26.703c.133.013.265.027.397.027h16.87q.014,0,.027-.013h12.1q.41,0,.41-.424V9.761c0-.159-.013-.331-.039-.49ZM7.421,23.212c0,.225-.106.278-.305.278h-1.537v.013c-.503,0-1.008-.013-1.511,0-.225,0-.331-.066-.331-.318.014-.596.014-1.206,0-1.802,0-.212.08-.292.292-.292h3.101c.199,0,.292.066.292.265-.014.623-.014,1.246,0,1.855ZM7.421,18.243c0,.239-.106.305-.331.305h-1.537c-.49,0-.994-.013-1.484,0-.238,0-.344-.053-.331-.305.014-.61,0-1.206,0-1.802,0-.212.066-.305.278-.305,1.047.013,2.081.013,3.114,0,.212,0,.292.093.292.305-.014.596-.014,1.206,0,1.802ZM7.421,13.247c0,.225-.08.318-.305.318-1.033-.013-2.054-.013-3.087,0-.226,0-.292-.093-.292-.318.014-.583.014-1.179,0-1.776,0-.225.08-.331.318-.318.516.013,1.02,0,1.537,0,.49,0,.981.013,1.484,0,.239-.013.345.066.345.331-.014.583-.014,1.179,0,1.763ZM7.421,8.317c0,.212-.067.292-.292.292h-3.101c-.212,0-.292-.08-.292-.292.014-.596.014-1.206,0-1.802,0-.252.106-.318.331-.318.503.013,1.008,0,1.511,0v.013h1.537c.226-.013.305.08.305.305-.014.596-.014,1.206,0,1.802ZM13.584,23.199c.013.239-.093.305-.305.305-.503-.013-1.008,0-1.511,0s-1.008-.013-1.511,0c-.212,0-.305-.066-.305-.292.014-.61.014-1.219,0-1.829,0-.212.093-.278.305-.278h3.022c.212-.013.305.066.305.292v1.802ZM13.584,18.256c.013.225-.093.292-.305.292h-1.537v.013c-.503,0-.994-.013-1.484,0-.225,0-.305-.093-.305-.318.014-.596.014-1.193,0-1.789,0-.239.093-.305.318-.305h3.008c.225-.013.305.08.305.305v1.802ZM13.597,13.26c0,.212-.093.292-.305.292h-3.048c-.212,0-.292-.08-.292-.292.014-.61.014-1.219,0-1.829,0-.212.093-.292.292-.292,1.02.013,2.041.013,3.048,0,.225,0,.305.08.305.292-.013.61-.013,1.219,0,1.829ZM13.597,8.317c0,.199-.08.292-.291.292h-3.048c-.212,0-.291-.08-.291-.292v-1.802c-.014-.252.093-.318.331-.318.503.013,1.007,0,1.51,0,.49,0,.981.013,1.484,0,.225,0,.305.093.305.318-.013.596-.013,1.206,0,1.802ZM20.965,23.265c0,.172-.066.265-.252.252h-1.895c-.185,0-.252-.08-.252-.265v-1.882c0-.172.067-.252.239-.252h1.922c.172,0,.238.08.238.252v1.895ZM20.965,18.296c0,.225-.093.292-.291.278h-1.842c-.199,0-.278-.08-.265-.278v-1.855c0-.186.067-.278.252-.265h1.895c.186,0,.252.08.252.265v1.855ZM20.965,13.313c0,.186-.08.265-.265.265h-1.882c-.185,0-.265-.093-.252-.265v-1.869c0-.199.08-.278.278-.278.623.013,1.233.013,1.855,0,.199,0,.265.093.265.292v1.855ZM26.041,23.239c0,.186-.066.265-.252.265-.636-.013-1.259-.013-1.895,0-.185,0-.252-.093-.252-.265v-1.895c0-.172.08-.252.239-.252h1.921c.173,0,.252.093.239.252v1.895ZM26.041,18.269c0,.225-.093.292-.291.292-.305-.013-.597,0-.901,0s-.623-.013-.941,0c-.199,0-.278-.093-.265-.292v-1.855c0-.185.067-.265.252-.265h1.895c.186,0,.252.08.252.265v1.855ZM26.041,13.286c0,.186-.066.265-.252.265h-1.895c-.185,0-.252-.08-.252-.265v-1.855c0-.199.08-.278.278-.278h1.855c.199,0,.278.08.265.278v1.855Z"/>
    </g>
  </g>
</svg>