<?xml version="1.0" encoding="UTF-8"?>
<svg id="uuid-f8270a9a-87e8-4e64-ada5-1f50649c2369" data-name="Dimensions" xmlns="http://www.w3.org/2000/svg" viewBox="0 0 29.92 30">
  <defs>
    <style>
      .uuid-067f3798-583e-40dc-b319-ec9ffec2b92a {
        fill: #b8c5e7;
        fill-rule: evenodd;
      }
    </style>
  </defs>
  <path id="uuid-9d605420-97a9-47a0-8af3-d45e680ae39c" data-name="Trazado 740" class="uuid-067f3798-583e-40dc-b319-ec9ffec2b92a" d="M28.101,26.194h-9.4c0,2.077-1.683,3.76-3.76,3.76s-3.76-1.683-3.76-3.76H1.782c-.791-.017-1.479-.548-1.696-1.309-.224-.738-.002-1.54.57-2.058,1.885-1.413,2.998-3.629,3.007-5.985v-5.611C3.664,5.003,8.714-.046,14.944-.046c6.228,0,11.277,5.05,11.278,11.278v5.611c.009,2.356,1.122,4.572,3.007,5.985.628.482.858,1.323.564,2.058-.217.759-.902,1.29-1.692,1.309Z"/>
</svg>